<svg width="119" height="90" viewBox="0 0 119 90" fill="none" xmlns="http://www.w3.org/2000/svg">
<path d="M28.751 57.75C24.401 57.75 20.701 56.9 17.651 55.2C14.601 53.45 12.276 50.6 10.676 46.65C9.12598 42.7 8.35098 37.35 8.35098 30.6C8.35098 23.85 9.12598 18.525 10.676 14.625C12.276 10.725 14.601 7.94999 17.651 6.29999C20.701 4.64999 24.401 3.82499 28.751 3.82499C33.151 3.82499 36.851 4.64999 39.851 6.29999C42.901 7.94999 45.201 10.725 46.751 14.625C48.351 18.525 49.151 23.85 49.151 30.6C49.151 37.35 48.351 42.7 46.751 46.65C45.201 50.6 42.901 53.45 39.851 55.2C36.851 56.9 33.151 57.75 28.751 57.75ZM28.751 47.85C30.751 47.85 32.451 47.375 33.851 46.425C35.301 45.475 36.401 43.75 37.151 41.25C37.951 38.75 38.351 35.2 38.351 30.6C38.351 25.95 37.951 22.425 37.151 20.025C36.401 17.575 35.301 15.925 33.851 15.075C32.451 14.175 30.751 13.725 28.751 13.725C26.801 13.725 25.101 14.175 23.651 15.075C22.201 15.925 21.076 17.575 20.276 20.025C19.526 22.425 19.151 25.95 19.151 30.6C19.151 35.2 19.526 38.75 20.276 41.25C21.076 43.75 22.201 45.475 23.651 46.425C25.101 47.375 26.801 47.85 28.751 47.85ZM68.2531 52.725C68.2531 56.075 66.5031 57.75 63.0031 57.75C61.3031 57.75 59.9531 57.325 58.9531 56.475C57.9531 55.625 57.4531 54.375 57.4531 52.725V5.84999C57.4531 4.04999 57.8531 2.62499 58.6531 1.57499C59.5031 0.524991 60.9031 -7.92742e-06 62.8531 -7.92742e-06C64.8031 -7.92742e-06 66.1781 0.524991 66.9781 1.57499C67.8281 2.62499 68.2531 4.04999 68.2531 5.84999V52.725ZM81.7197 57.75C80.9197 57.75 80.0447 57.575 79.0947 57.225C78.1947 56.925 77.3947 56.4 76.6947 55.65C76.0447 54.9 75.7197 53.95 75.7197 52.8C75.7197 51 76.5697 48.825 78.2697 46.275C80.0197 43.675 82.3947 40.95 85.3947 38.1L77.4447 27.9C77.0947 27.4 76.7447 26.85 76.3947 26.25C76.0947 25.6 75.9447 24.95 75.9447 24.3C75.9447 23.6 76.0947 22.9 76.3947 22.2C76.7447 21.45 77.3197 20.725 78.1197 20.025C78.6697 19.575 79.2197 19.275 79.7697 19.125C80.3197 18.925 80.8447 18.825 81.3447 18.825C82.2947 18.825 83.1447 19.05 83.8947 19.5C84.6947 19.9 85.2947 20.375 85.6947 20.925L93.5697 30.975C94.7197 29.625 95.7197 28.2 96.5697 26.7C97.4697 25.2 98.1947 23.825 98.7447 22.575C99.2447 21.425 99.8947 20.525 100.695 19.875C101.495 19.175 102.445 18.825 103.545 18.825C105.045 18.825 106.395 19.275 107.595 20.175C108.795 21.025 109.395 22.325 109.395 24.075C109.395 25.925 108.62 28.05 107.07 30.45C105.57 32.85 103.245 35.575 100.095 38.625L108.345 48.75C108.745 49.2 109.07 49.75 109.32 50.4C109.62 51 109.77 51.65 109.77 52.35C109.77 53 109.595 53.7 109.245 54.45C108.945 55.15 108.42 55.85 107.67 56.55C107.17 57 106.645 57.3 106.095 57.45C105.545 57.65 104.995 57.75 104.445 57.75C103.495 57.75 102.645 57.525 101.895 57.075C101.145 56.625 100.545 56.15 100.095 55.65L91.7697 45.45C90.7197 46.7 89.6697 48.175 88.6197 49.875C87.6197 51.575 86.7697 53.175 86.0697 54.675C85.6197 55.675 85.0447 56.45 84.3447 57C83.6947 57.5 82.8197 57.75 81.7197 57.75ZM3.45609 87.734C3.45609 88.806 2.89609 89.342 1.77609 89.342C1.23209 89.342 0.80009 89.206 0.48009 88.934C0.16009 88.662 8.98838e-05 88.262 8.98838e-05 87.734V78.23C8.98838e-05 76.022 0.44809 74.446 1.34409 73.502C2.24009 72.558 3.64009 72.086 5.54409 72.086C7.49609 72.086 8.93609 72.566 9.86409 73.526C10.7921 74.486 11.2561 76.054 11.2561 78.23V87.734C11.2561 88.806 10.6961 89.342 9.57609 89.342C9.03209 89.342 8.60009 89.206 8.28009 88.934C7.96009 88.662 7.80009 88.262 7.80009 87.734V81.95C7.49609 82.222 7.16009 82.454 6.79209 82.646C6.44009 82.838 6.02409 82.934 5.54409 82.934C4.84009 82.934 4.31209 83.062 3.96009 83.318C3.62409 83.574 3.45609 84.03 3.45609 84.686V87.734ZM3.31209 80.702C3.56809 80.446 3.87209 80.246 4.22409 80.102C4.59209 79.958 5.03209 79.886 5.54409 79.886C6.15209 79.886 6.61609 79.838 6.93609 79.742C7.27209 79.646 7.50409 79.462 7.63209 79.19C7.76009 78.918 7.82409 78.518 7.82409 77.99C7.82409 76.806 7.65609 75.998 7.32009 75.566C6.98409 75.118 6.38409 74.894 5.52009 74.894C4.72009 74.894 4.16809 75.126 3.86409 75.59C3.57609 76.038 3.43209 76.87 3.43209 78.086C3.43209 78.71 3.42409 79.238 3.40809 79.67C3.39209 80.102 3.36009 80.446 3.31209 80.702ZM19.3347 89.342C17.3827 89.342 15.9347 88.782 14.9907 87.662C14.0467 86.526 13.5747 85.03 13.5747 83.174C13.5747 81.318 14.0467 79.822 14.9907 78.686C15.9347 77.534 17.3827 76.958 19.3347 76.958C20.5667 76.958 21.4627 77.086 22.0227 77.342C22.5987 77.598 22.8867 78.054 22.8867 78.71C22.8867 79.174 22.7587 79.51 22.5027 79.718C22.2467 79.926 21.9027 80.03 21.4707 80.03C21.1667 80.03 20.9267 80.006 20.7507 79.958C20.5747 79.91 20.3827 79.87 20.1747 79.838C19.9827 79.79 19.6787 79.766 19.2627 79.766C18.7027 79.766 18.2547 79.934 17.9187 80.27C17.5987 80.606 17.3667 81.038 17.2227 81.566C17.0947 82.078 17.0307 82.614 17.0307 83.174C17.0307 83.718 17.0787 84.254 17.1747 84.782C17.2867 85.294 17.5027 85.718 17.8227 86.054C18.1427 86.374 18.6307 86.534 19.2867 86.534C19.8947 86.534 20.3427 86.494 20.6307 86.414C20.9187 86.318 21.1987 86.27 21.4707 86.27C21.9027 86.27 22.2467 86.35 22.5027 86.51C22.7587 86.654 22.8867 86.958 22.8867 87.422C22.8867 88.078 22.5987 88.566 22.0227 88.886C21.4627 89.19 20.5667 89.342 19.3347 89.342ZM28.7178 87.734C28.7178 88.806 28.1578 89.342 27.0378 89.342C26.4938 89.342 26.0618 89.206 25.7418 88.934C25.4218 88.662 25.2618 88.262 25.2618 87.734V72.734C25.2618 71.486 25.8458 70.862 27.0138 70.862C28.1658 70.862 28.7418 71.486 28.7418 72.734V75.302C28.7418 75.75 28.6938 76.182 28.5978 76.598C28.5018 77.014 28.3418 77.446 28.1178 77.894C28.3898 77.558 28.7498 77.318 29.1978 77.174C29.6458 77.03 30.1658 76.958 30.7578 76.958C31.8138 76.958 32.7338 77.166 33.5178 77.582C34.3018 77.998 34.9098 78.582 35.3418 79.334C35.7898 80.07 36.0138 80.95 36.0138 81.974V87.734C36.0138 88.806 35.4538 89.342 34.3338 89.342C33.7898 89.342 33.3578 89.206 33.0378 88.934C32.7178 88.662 32.5578 88.262 32.5578 87.734V82.118C32.5578 81.366 32.3818 80.798 32.0298 80.414C31.6938 80.03 31.2218 79.838 30.6138 79.838C30.0218 79.838 29.5578 80.038 29.2218 80.438C28.8858 80.822 28.7178 81.382 28.7178 82.118V87.734ZM42.9177 89.342C41.3177 89.342 40.0697 88.974 39.1737 88.238C38.2777 87.486 37.8297 86.518 37.8297 85.334C37.8297 83.942 38.4137 82.934 39.5817 82.31C40.7657 81.686 42.4937 81.47 44.7657 81.662C44.6537 80.926 44.4217 80.43 44.0697 80.174C43.7177 79.902 43.2937 79.766 42.7977 79.766C42.3977 79.766 42.0617 79.79 41.7897 79.838C41.5337 79.87 41.2937 79.91 41.0697 79.958C40.8457 80.006 40.5737 80.03 40.2537 80.03C39.8217 80.03 39.4777 79.958 39.2217 79.814C38.9657 79.654 38.8377 79.342 38.8377 78.878C38.8377 78.222 39.1177 77.742 39.6777 77.438C40.2537 77.118 41.1577 76.958 42.3897 76.958C44.3417 76.958 45.7897 77.518 46.7337 78.638C47.6777 79.742 48.1497 81.222 48.1497 83.078C48.1497 85.222 47.7577 86.806 46.9737 87.83C46.2057 88.838 44.8537 89.342 42.9177 89.342ZM41.2857 85.334C41.2857 86.246 41.9017 86.702 43.1337 86.702C43.5337 86.702 43.8457 86.63 44.0697 86.486C44.2937 86.342 44.4537 86.054 44.5497 85.622C44.6617 85.19 44.7417 84.542 44.7897 83.678C44.7097 83.758 44.6057 83.814 44.4777 83.846C44.3497 83.878 44.2217 83.894 44.0937 83.894C43.0377 83.894 42.3017 83.998 41.8857 84.206C41.4857 84.398 41.2857 84.774 41.2857 85.334ZM55.5217 89.342C53.7617 89.342 52.3697 88.782 51.3457 87.662C50.3377 86.542 49.8337 84.902 49.8337 82.742C49.8337 81.302 50.0417 80.158 50.4577 79.31C50.8737 78.462 51.4497 77.862 52.1857 77.51C52.9377 77.142 53.7857 76.958 54.7297 76.958C55.5777 76.958 56.2657 77.062 56.7937 77.27C57.3217 77.478 57.7377 77.83 58.0417 78.326C57.9297 77.99 57.8417 77.678 57.7777 77.39C57.7297 77.086 57.6897 76.734 57.6577 76.334C57.6417 75.934 57.6337 75.422 57.6337 74.798V72.734C57.6337 71.486 58.1697 70.862 59.2417 70.862C60.4097 70.862 60.9937 71.486 60.9937 72.734V82.886C60.9937 85.046 60.5137 86.662 59.5537 87.734C58.5937 88.806 57.2497 89.342 55.5217 89.342ZM55.3537 86.462C56.0257 86.462 56.5457 86.222 56.9137 85.742C57.2977 85.262 57.4897 84.366 57.4897 83.054C57.4897 82.174 57.4017 81.51 57.2257 81.062C57.0657 80.598 56.8257 80.278 56.5057 80.102C56.1857 79.926 55.8017 79.838 55.3537 79.838C54.9057 79.838 54.5217 79.926 54.2017 80.102C53.8817 80.278 53.6337 80.598 53.4577 81.062C53.2977 81.51 53.2177 82.174 53.2177 83.054C53.2177 84.366 53.4017 85.262 53.7697 85.742C54.1537 86.222 54.6817 86.462 55.3537 86.462ZM65.3118 74.894C64.7198 74.894 64.2238 74.702 63.8238 74.318C63.4238 73.934 63.2238 73.462 63.2238 72.902C63.2238 72.31 63.4238 71.822 63.8238 71.438C64.2238 71.054 64.7198 70.862 65.3118 70.862C65.9198 70.862 66.4158 71.054 66.7998 71.438C67.1998 71.822 67.3998 72.31 67.3998 72.902C67.3998 73.462 67.1998 73.934 66.7998 74.318C66.4158 74.702 65.9198 74.894 65.3118 74.894ZM67.0398 87.734C67.0398 88.806 66.4798 89.342 65.3598 89.342C64.8158 89.342 64.3838 89.214 64.0638 88.958C63.7438 88.686 63.5838 88.278 63.5838 87.734V78.59C63.5838 78.078 63.7118 77.678 63.9678 77.39C64.2398 77.102 64.6878 76.958 65.3118 76.958C65.9358 76.958 66.3758 77.102 66.6318 77.39C66.9038 77.678 67.0398 78.078 67.0398 78.59V87.734ZM71.3341 89.342C70.1821 89.342 69.6061 88.798 69.6061 87.71V81.95C69.6061 80.414 70.0941 79.198 71.0701 78.302C72.0621 77.406 73.3661 76.958 74.9821 76.958C76.5981 76.958 77.8941 77.406 78.8701 78.302C79.8621 79.198 80.3581 80.414 80.3581 81.95V87.71C80.3581 88.798 79.7821 89.342 78.6301 89.342C77.4781 89.342 76.9021 88.798 76.9021 87.71V82.142C76.9021 81.39 76.7341 80.822 76.3981 80.438C76.0621 80.038 75.5901 79.838 74.9821 79.838C74.3741 79.838 73.9021 80.038 73.5661 80.438C73.2301 80.822 73.0621 81.39 73.0621 82.142V87.71C73.0621 88.798 72.4861 89.342 71.3341 89.342ZM86.3975 87.734C86.3975 88.806 85.8375 89.342 84.7175 89.342C84.1735 89.342 83.7415 89.206 83.4215 88.934C83.1015 88.662 82.9415 88.262 82.9415 87.734V72.734C82.9415 71.486 83.5255 70.862 84.6935 70.862C85.8455 70.862 86.4215 71.486 86.4215 72.734V75.302C86.4215 75.75 86.3735 76.182 86.2775 76.598C86.1815 77.014 86.0215 77.446 85.7975 77.894C86.0695 77.558 86.4295 77.318 86.8775 77.174C87.3255 77.03 87.8455 76.958 88.4375 76.958C89.4935 76.958 90.4135 77.166 91.1975 77.582C91.9815 77.998 92.5895 78.582 93.0215 79.334C93.4695 80.07 93.6935 80.95 93.6935 81.974V87.734C93.6935 88.806 93.1335 89.342 92.0135 89.342C91.4695 89.342 91.0375 89.206 90.7175 88.934C90.3975 88.662 90.2375 88.262 90.2375 87.734V82.118C90.2375 81.366 90.0615 80.798 89.7095 80.414C89.3735 80.03 88.9015 79.838 88.2935 79.838C87.7015 79.838 87.2375 80.038 86.9015 80.438C86.5655 80.822 86.3975 81.382 86.3975 82.118V87.734ZM101.55 89.342C99.8375 89.342 98.4855 88.854 97.4935 87.878C96.5015 86.902 96.0055 85.326 96.0055 83.15C96.0055 80.958 96.5015 79.382 97.4935 78.422C98.4855 77.446 99.8375 76.958 101.55 76.958C103.262 76.958 104.614 77.446 105.606 78.422C106.598 79.382 107.094 80.958 107.094 83.15C107.094 85.326 106.598 86.902 105.606 87.878C104.614 88.854 103.262 89.342 101.55 89.342ZM101.55 86.462C101.998 86.462 102.374 86.374 102.678 86.198C102.982 86.006 103.214 85.67 103.374 85.19C103.55 84.71 103.638 84.03 103.638 83.15C103.638 82.27 103.55 81.59 103.374 81.11C103.214 80.63 102.982 80.302 102.678 80.126C102.374 79.934 101.998 79.838 101.55 79.838C101.118 79.838 100.742 79.934 100.422 80.126C100.118 80.302 99.8775 80.63 99.7015 81.11C99.5415 81.59 99.4615 82.27 99.4615 83.15C99.4615 84.03 99.5415 84.71 99.7015 85.19C99.8775 85.67 100.118 86.006 100.422 86.198C100.742 86.374 101.118 86.462 101.55 86.462ZM113.363 89.342C110.355 89.342 108.851 88.678 108.851 87.35C108.851 86.934 108.963 86.606 109.187 86.366C109.411 86.126 109.707 86.006 110.075 86.006C110.235 86.006 110.387 86.03 110.531 86.078C110.691 86.11 110.995 86.198 111.443 86.342C111.635 86.406 111.891 86.47 112.211 86.534C112.531 86.598 112.843 86.63 113.147 86.63C113.723 86.63 114.131 86.558 114.371 86.414C114.611 86.27 114.731 86.03 114.731 85.694C114.731 85.422 114.667 85.214 114.539 85.07C114.411 84.91 114.139 84.758 113.723 84.614C113.307 84.47 112.659 84.27 111.779 84.014C110.979 83.79 110.331 83.39 109.835 82.814C109.355 82.222 109.115 81.494 109.115 80.63C109.115 79.414 109.555 78.486 110.435 77.846C111.315 77.206 112.523 76.886 114.059 76.886C115.211 76.886 116.115 77.046 116.771 77.366C117.427 77.686 117.755 78.15 117.755 78.758C117.755 79.142 117.643 79.462 117.419 79.718C117.195 79.974 116.891 80.102 116.507 80.102C116.347 80.102 116.155 80.078 115.931 80.03C115.723 79.982 115.467 79.918 115.163 79.838C114.939 79.758 114.699 79.694 114.443 79.646C114.203 79.598 113.947 79.574 113.675 79.574C112.907 79.574 112.523 79.846 112.523 80.39C112.523 80.71 112.675 80.982 112.979 81.206C113.283 81.414 113.867 81.646 114.731 81.902C115.915 82.254 116.787 82.726 117.347 83.318C117.907 83.894 118.187 84.662 118.187 85.622C118.187 86.742 117.755 87.646 116.891 88.334C116.043 89.006 114.867 89.342 113.363 89.342Z" fill="white"/>
</svg>
